<svg xmlns="http://www.w3.org/2000/svg" xmlns:xlink="http://www.w3.org/1999/xlink" contentStyleType="text/css" data-diagram-type="CLASS" height="1017px" preserveAspectRatio="none" style="width:1627px;height:1017px;background:#FFFFFF;" version="1.1" viewBox="0 0 1627 1017" width="1627px" zoomAndPan="magnify"><defs/><g><!--cluster de--><g id="cluster_de"><path d="M8.5,6 L29.0166,6 A3.75,3.75 0 0 1 31.5166,8.5 L38.5166,28.2969 L1617.5,28.2969 A2.5,2.5 0 0 1 1620,30.7969 L1620,796.36 A2.5,2.5 0 0 1 1617.5,798.86 L8.5,798.86 A2.5,2.5 0 0 1 6,796.36 L6,8.5 A2.5,2.5 0 0 1 8.5,6 " fill="#FFFFFF" fill-opacity="0.00000" style="stroke:#000000;stroke-width:1.5;"/><line style="stroke:#000000;stroke-width:1.5;" x1="6" x2="38.5166" y1="28.2969" y2="28.2969"/><text fill="#000000" font-family="sans-serif" font-size="14" font-weight="bold" lengthAdjust="spacing" textLength="19.5166" x="10" y="20.9951">de</text></g><!--cluster sh--><g id="cluster_sh"><path d="M32.5,49 L51.7998,49 A3.75,3.75 0 0 1 54.2998,51.5 L61.2998,71.2969 L1593.5,71.2969 A2.5,2.5 0 0 1 1596,73.7969 L1596,772.36 A2.5,2.5 0 0 1 1593.5,774.86 L32.5,774.86 A2.5,2.5 0 0 1 30,772.36 L30,51.5 A2.5,2.5 0 0 1 32.5,49 " fill="#FFFFFF" fill-opacity="0.00000" style="stroke:#000000;stroke-width:1.5;"/><line style="stroke:#000000;stroke-width:1.5;" x1="30" x2="61.2998" y1="71.2969" y2="71.2969"/><text fill="#000000" font-family="sans-serif" font-size="14" font-weight="bold" lengthAdjust="spacing" textLength="18.2998" x="34" y="63.9951">sh</text></g><!--cluster todoapp--><g id="cluster_todoapp"><path d="M56.5,92 L122.9404,92 A3.75,3.75 0 0 1 125.4404,94.5 L132.4404,114.2969 L1569.5,114.2969 A2.5,2.5 0 0 1 1572,116.7969 L1572,748.36 A2.5,2.5 0 0 1 1569.5,750.86 L56.5,750.86 A2.5,2.5 0 0 1 54,748.36 L54,94.5 A2.5,2.5 0 0 1 56.5,92 " fill="#FFFFFF" fill-opacity="0.00000" style="stroke:#000000;stroke-width:1.5;"/><line style="stroke:#000000;stroke-width:1.5;" x1="54" x2="132.4404" y1="114.2969" y2="114.2969"/><text fill="#000000" font-family="sans-serif" font-size="14" font-weight="bold" lengthAdjust="spacing" textLength="65.4404" x="58" y="106.9951">todoapp</text></g><!--cluster ui--><g id="cluster_ui"><path d="M80.5,216.3 L96.2656,216.3 A3.75,3.75 0 0 1 98.7656,218.8 L105.7656,238.5969 L780.5,238.5969 A2.5,2.5 0 0 1 783,241.0969 L783,518.58 A2.5,2.5 0 0 1 780.5,521.08 L80.5,521.08 A2.5,2.5 0 0 1 78,518.58 L78,218.8 A2.5,2.5 0 0 1 80.5,216.3 " fill="#FFFFFF" fill-opacity="0.00000" style="stroke:#000000;stroke-width:1.5;"/><line style="stroke:#000000;stroke-width:1.5;" x1="78" x2="105.7656" y1="238.5969" y2="238.5969"/><text fill="#000000" font-family="sans-serif" font-size="14" font-weight="bold" lengthAdjust="spacing" textLength="14.7656" x="82" y="231.2951">ui</text></g><!--cluster data--><g id="cluster_data"><path d="M809.5,356.89 L846.1084,356.89 A3.75,3.75 0 0 1 848.6084,359.39 L855.6084,379.1869 L1545.5,379.1869 A2.5,2.5 0 0 1 1548,381.6869 L1548,724.36 A2.5,2.5 0 0 1 1545.5,726.86 L809.5,726.86 A2.5,2.5 0 0 1 807,724.36 L807,359.39 A2.5,2.5 0 0 1 809.5,356.89 " fill="#FFFFFF" fill-opacity="0.00000" style="stroke:#000000;stroke-width:1.5;"/><line style="stroke:#000000;stroke-width:1.5;" x1="807" x2="855.6084" y1="379.1869" y2="379.1869"/><text fill="#000000" font-family="sans-serif" font-size="14" font-weight="bold" lengthAdjust="spacing" textLength="35.6084" x="811" y="371.8851">data</text></g><!--cluster assets--><g id="cluster_assets"><path d="M1119.5,830.86 L1171.1338,830.86 A3.75,3.75 0 0 1 1173.6338,833.36 L1180.6338,853.1569 L1292.5,853.1569 A2.5,2.5 0 0 1 1295,855.6569 L1295,1007.66 A2.5,2.5 0 0 1 1292.5,1010.16 L1119.5,1010.16 A2.5,2.5 0 0 1 1117,1007.66 L1117,833.36 A2.5,2.5 0 0 1 1119.5,830.86 " fill="#FFFFFF" fill-opacity="0.00000" style="stroke:#000000;stroke-width:1.5;"/><line style="stroke:#000000;stroke-width:1.5;" x1="1117" x2="1180.6338" y1="853.1569" y2="853.1569"/><text fill="#000000" font-family="sans-serif" font-size="14" font-weight="bold" lengthAdjust="spacing" textLength="50.6338" x="1121" y="845.8551">assets</text></g><!--cluster todo--><g id="cluster_todo"><path d="M1151.5,881.86 L1188.4502,881.86 A3.75,3.75 0 0 1 1190.9502,884.36 L1197.9502,904.1569 L1252.5,904.1569 A2.5,2.5 0 0 1 1255,906.6569 L1255,975.66 A2.5,2.5 0 0 1 1252.5,978.16 L1151.5,978.16 A2.5,2.5 0 0 1 1149,975.66 L1149,884.36 A2.5,2.5 0 0 1 1151.5,881.86 " fill="#FFFFFF" fill-opacity="0.00000" style="stroke:#000000;stroke-width:1.5;"/><line style="stroke:#000000;stroke-width:1.5;" x1="1149" x2="1197.9502" y1="904.1569" y2="904.1569"/><text fill="#000000" font-family="sans-serif" font-size="14" font-weight="bold" lengthAdjust="spacing" textLength="35.9502" x="1153" y="896.8551">todo</text></g><!--class MainActivity--><g id="elem_MainActivity"><rect codeLine="4" fill="#F1F1F1" height="64.2969" id="MainActivity" rx="2.5" ry="2.5" style="stroke:#181818;stroke-width:0.5;" width="304.79" x="354.6" y="127"/><ellipse cx="459.7333" cy="143" fill="#ADD1B2" rx="11" ry="11" style="stroke:#181818;stroke-width:1;"/><path d="M462.7021,148.6406 Q462.1239,148.9375 461.4833,149.0781 Q460.8427,149.2344 460.1396,149.2344 Q457.6396,149.2344 456.3114,147.5938 Q454.9989,145.9375 454.9989,142.8125 Q454.9989,139.6875 456.3114,138.0313 Q457.6396,136.375 460.1396,136.375 Q460.8427,136.375 461.4833,136.5313 Q462.1396,136.6875 462.7021,136.9844 L462.7021,139.7031 Q462.0771,139.125 461.4833,138.8594 Q460.8896,138.5781 460.2646,138.5781 Q458.9208,138.5781 458.2333,139.6563 Q457.5458,140.7188 457.5458,142.8125 Q457.5458,144.9063 458.2333,145.9844 Q458.9208,147.0469 460.2646,147.0469 Q460.8896,147.0469 461.4833,146.7813 Q462.0771,146.5 462.7021,145.9219 L462.7021,148.6406 Z " fill="#000000"/><text fill="#000000" font-family="sans-serif" font-size="14" lengthAdjust="spacing" textLength="86.0234" x="480.2333" y="147.8467">MainActivity</text><line style="stroke:#181818;stroke-width:0.5;" x1="355.6" x2="658.39" y1="159" y2="159"/><line style="stroke:#181818;stroke-width:0.5;" x1="355.6" x2="658.39" y1="167" y2="167"/><ellipse cx="365.6" cy="180.6484" fill="#84BE84" rx="3" ry="3" style="stroke:#038048;stroke-width:1;"/><text fill="#000000" font-family="sans-serif" font-size="14" lengthAdjust="spacing" textLength="278.79" x="374.6" y="183.9951">onCreate(savedInstanceState: Bundle?)</text></g><!--class Dashboard--><g id="elem_Dashboard"><rect codeLine="9" fill="#F1F1F1" height="64.2969" id="Dashboard" rx="2.5" ry="2.5" style="stroke:#181818;stroke-width:0.5;" width="113.124" x="338.44" y="259.45"/><ellipse cx="355.6557" cy="275.45" fill="#ADD1B2" rx="11" ry="11" style="stroke:#181818;stroke-width:1;"/><path d="M358.6245,281.0906 Q358.0463,281.3875 357.4057,281.5281 Q356.7651,281.6844 356.062,281.6844 Q353.562,281.6844 352.2338,280.0438 Q350.9213,278.3875 350.9213,275.2625 Q350.9213,272.1375 352.2338,270.4813 Q353.562,268.825 356.062,268.825 Q356.7651,268.825 357.4057,268.9813 Q358.062,269.1375 358.6245,269.4344 L358.6245,272.1531 Q357.9995,271.575 357.4057,271.3094 Q356.812,271.0281 356.187,271.0281 Q354.8432,271.0281 354.1557,272.1063 Q353.4682,273.1688 353.4682,275.2625 Q353.4682,277.3563 354.1557,278.4344 Q354.8432,279.4969 356.187,279.4969 Q356.812,279.4969 357.4057,279.2313 Q357.9995,278.95 358.6245,278.3719 L358.6245,281.0906 Z " fill="#000000"/><text fill="#000000" font-family="sans-serif" font-size="14" lengthAdjust="spacing" textLength="76.2002" x="370.1481" y="280.2967">Dashboard</text><line style="stroke:#181818;stroke-width:0.5;" x1="339.44" x2="450.564" y1="291.45" y2="291.45"/><line style="stroke:#181818;stroke-width:0.5;" x1="339.44" x2="450.564" y1="299.45" y2="299.45"/><ellipse cx="349.44" cy="313.0984" fill="#84BE84" rx="3" ry="3" style="stroke:#038048;stroke-width:1;"/><text fill="#000000" font-family="sans-serif" font-size="14" lengthAdjust="spacing" textLength="87.124" x="358.44" y="316.4451">Dashboard()</text></g><!--class TodoScreen--><g id="elem_TodoScreen"><rect codeLine="13" fill="#F1F1F1" height="80.5938" id="TodoScreen" rx="2.5" ry="2.5" style="stroke:#181818;stroke-width:0.5;" width="263.9248" x="487.04" y="251.3"/><ellipse cx="573.248" cy="267.3" fill="#ADD1B2" rx="11" ry="11" style="stroke:#181818;stroke-width:1;"/><path d="M576.2168,272.9406 Q575.6386,273.2375 574.998,273.3781 Q574.3574,273.5344 573.6543,273.5344 Q571.1543,273.5344 569.8261,271.8938 Q568.5136,270.2375 568.5136,267.1125 Q568.5136,263.9875 569.8261,262.3313 Q571.1543,260.675 573.6543,260.675 Q574.3574,260.675 574.998,260.8313 Q575.6543,260.9875 576.2168,261.2844 L576.2168,264.0031 Q575.5918,263.425 574.998,263.1594 Q574.4043,262.8781 573.7793,262.8781 Q572.4355,262.8781 571.748,263.9563 Q571.0605,265.0188 571.0605,267.1125 Q571.0605,269.2063 571.748,270.2844 Q572.4355,271.3469 573.7793,271.3469 Q574.4043,271.3469 574.998,271.0813 Q575.5918,270.8 576.2168,270.2219 L576.2168,272.9406 Z " fill="#000000"/><text fill="#000000" font-family="sans-serif" font-size="14" lengthAdjust="spacing" textLength="83.0088" x="593.748" y="272.1467">TodoScreen</text><line style="stroke:#181818;stroke-width:0.5;" x1="488.04" x2="749.9648" y1="283.3" y2="283.3"/><line style="stroke:#181818;stroke-width:0.5;" x1="488.04" x2="749.9648" y1="291.3" y2="291.3"/><ellipse cx="498.04" cy="304.9484" fill="#84BE84" rx="3" ry="3" style="stroke:#038048;stroke-width:1;"/><text fill="#000000" font-family="sans-serif" font-size="14" lengthAdjust="spacing" textLength="210.1914" x="507.04" y="308.2951">TodoScreen(context: Context,</text><text fill="#000000" font-family="sans-serif" font-size="14" lengthAdjust="spacing" textLength="237.9248" x="507.04" y="324.592">navController: NavHostController)</text></g><!--class ExpandableTodoCard--><g id="elem_ExpandableTodoCard"><rect codeLine="18" fill="#F1F1F1" height="96.8906" id="ExpandableTodoCard" rx="2.5" ry="2.5" style="stroke:#181818;stroke-width:0.5;" width="342.8662" x="93.57" y="400.04"/><ellipse cx="185.8073" cy="416.04" fill="#ADD1B2" rx="11" ry="11" style="stroke:#181818;stroke-width:1;"/><path d="M188.7761,421.6806 Q188.1979,421.9775 187.5573,422.1181 Q186.9167,422.2744 186.2136,422.2744 Q183.7136,422.2744 182.3854,420.6338 Q181.0729,418.9775 181.0729,415.8525 Q181.0729,412.7275 182.3854,411.0713 Q183.7136,409.415 186.2136,409.415 Q186.9167,409.415 187.5573,409.5713 Q188.2136,409.7275 188.7761,410.0244 L188.7761,412.7431 Q188.1511,412.165 187.5573,411.8994 Q186.9636,411.6181 186.3386,411.6181 Q184.9948,411.6181 184.3073,412.6963 Q183.6198,413.7588 183.6198,415.8525 Q183.6198,417.9463 184.3073,419.0244 Q184.9948,420.0869 186.3386,420.0869 Q186.9636,420.0869 187.5573,419.8213 Q188.1511,419.54 188.7761,418.9619 L188.7761,421.6806 Z " fill="#000000"/><text fill="#000000" font-family="sans-serif" font-size="14" lengthAdjust="spacing" textLength="149.8916" x="206.3073" y="420.8867">ExpandableTodoCard</text><line style="stroke:#181818;stroke-width:0.5;" x1="94.57" x2="435.4362" y1="432.04" y2="432.04"/><line style="stroke:#181818;stroke-width:0.5;" x1="94.57" x2="435.4362" y1="440.04" y2="440.04"/><ellipse cx="104.57" cy="453.6884" fill="#84BE84" rx="3" ry="3" style="stroke:#038048;stroke-width:1;"/><text fill="#000000" font-family="sans-serif" font-size="14" lengthAdjust="spacing" textLength="305.3066" x="113.57" y="457.0351">ExpandableTodoCard(todo: TodoDataClass,</text><text fill="#000000" font-family="sans-serif" font-size="14" lengthAdjust="spacing" textLength="156.6318" x="113.57" y="473.332">onEditClick: () -&gt; Unit,</text><text fill="#000000" font-family="sans-serif" font-size="14" lengthAdjust="spacing" textLength="316.8662" x="113.57" y="489.6289">onCompleteToggle: (TodoDataClass) -&gt; Unit)</text></g><!--class EditTodoDialog--><g id="elem_EditTodoDialog"><rect codeLine="24" fill="#F1F1F1" height="113.1875" id="EditTodoDialog" rx="2.5" ry="2.5" style="stroke:#181818;stroke-width:0.5;" width="295.1172" x="471.44" y="391.89"/><ellipse cx="561.6129" cy="407.89" fill="#ADD1B2" rx="11" ry="11" style="stroke:#181818;stroke-width:1;"/><path d="M564.5816,413.5306 Q564.0035,413.8275 563.3629,413.9681 Q562.7222,414.1244 562.0191,414.1244 Q559.5191,414.1244 558.191,412.4838 Q556.8785,410.8275 556.8785,407.7025 Q556.8785,404.5775 558.191,402.9213 Q559.5191,401.265 562.0191,401.265 Q562.7222,401.265 563.3629,401.4213 Q564.0191,401.5775 564.5816,401.8744 L564.5816,404.5931 Q563.9566,404.015 563.3629,403.7494 Q562.7691,403.4681 562.1441,403.4681 Q560.8004,403.4681 560.1129,404.5463 Q559.4254,405.6088 559.4254,407.7025 Q559.4254,409.7963 560.1129,410.8744 Q560.8004,411.9369 562.1441,411.9369 Q562.7691,411.9369 563.3629,411.6713 Q563.9566,411.39 564.5816,410.8119 L564.5816,413.5306 Z " fill="#000000"/><text fill="#000000" font-family="sans-serif" font-size="14" lengthAdjust="spacing" textLength="106.2715" x="582.1129" y="412.7367">EditTodoDialog</text><line style="stroke:#181818;stroke-width:0.5;" x1="472.44" x2="765.5572" y1="423.89" y2="423.89"/><line style="stroke:#181818;stroke-width:0.5;" x1="472.44" x2="765.5572" y1="431.89" y2="431.89"/><ellipse cx="482.44" cy="445.5384" fill="#84BE84" rx="3" ry="3" style="stroke:#038048;stroke-width:1;"/><text fill="#000000" font-family="sans-serif" font-size="14" lengthAdjust="spacing" textLength="269.1172" x="491.44" y="448.8851">EditTodoDialog(todo: TodoDataClass?,</text><text fill="#000000" font-family="sans-serif" font-size="14" lengthAdjust="spacing" textLength="150.2402" x="491.44" y="465.182">onDismiss: () -&gt; Unit,</text><text fill="#000000" font-family="sans-serif" font-size="14" lengthAdjust="spacing" textLength="235.3545" x="491.44" y="481.4789">onSave: (TodoDataClass) -&gt; Unit,</text><text fill="#000000" font-family="sans-serif" font-size="14" lengthAdjust="spacing" textLength="248.001" x="491.44" y="497.7757">onDelete: (TodoDataClass) -&gt; Unit)</text></g><!--class TodoDataClass--><g id="elem_TodoDataClass"><rect codeLine="33" fill="#F1F1F1" height="145.7813" id="TodoDataClass" rx="2.5" ry="2.5" style="stroke:#181818;stroke-width:0.5;" width="184.3203" x="822.84" y="565.08"/><ellipse cx="859.211" cy="581.08" fill="#ADD1B2" rx="11" ry="11" style="stroke:#181818;stroke-width:1;"/><path d="M862.1798,586.7206 Q861.6017,587.0175 860.961,587.1581 Q860.3204,587.3144 859.6173,587.3144 Q857.1173,587.3144 855.7892,585.6738 Q854.4767,584.0175 854.4767,580.8925 Q854.4767,577.7675 855.7892,576.1113 Q857.1173,574.455 859.6173,574.455 Q860.3204,574.455 860.961,574.6113 Q861.6173,574.7675 862.1798,575.0644 L862.1798,577.7831 Q861.5548,577.205 860.961,576.9394 Q860.3673,576.6581 859.7423,576.6581 Q858.3985,576.6581 857.711,577.7363 Q857.0235,578.7988 857.0235,580.8925 Q857.0235,582.9863 857.711,584.0644 Q858.3985,585.1269 859.7423,585.1269 Q860.3673,585.1269 860.961,584.8613 Q861.5548,584.58 862.1798,584.0019 L862.1798,586.7206 Z " fill="#000000"/><text fill="#000000" font-family="sans-serif" font-size="14" lengthAdjust="spacing" textLength="104.8291" x="877.9602" y="585.9267">TodoDataClass</text><line style="stroke:#181818;stroke-width:0.5;" x1="823.84" x2="1006.1603" y1="597.08" y2="597.08"/><ellipse cx="833.84" cy="610.7284" fill="#FFFFFF" fill-opacity="0.00000" rx="3" ry="3" style="stroke:#038048;stroke-width:1;"/><text fill="#000000" font-family="sans-serif" font-size="14" lengthAdjust="spacing" textLength="40.4346" x="842.84" y="614.0751">id: Int</text><ellipse cx="833.84" cy="627.0253" fill="#FFFFFF" fill-opacity="0.00000" rx="3" ry="3" style="stroke:#038048;stroke-width:1;"/><text fill="#000000" font-family="sans-serif" font-size="14" lengthAdjust="spacing" textLength="90.6514" x="842.84" y="630.372">name: String</text><ellipse cx="833.84" cy="643.3222" fill="#FFFFFF" fill-opacity="0.00000" rx="3" ry="3" style="stroke:#038048;stroke-width:1;"/><text fill="#000000" font-family="sans-serif" font-size="14" lengthAdjust="spacing" textLength="78.1758" x="842.84" y="646.6689">priority: Int</text><ellipse cx="833.84" cy="659.6191" fill="#FFFFFF" fill-opacity="0.00000" rx="3" ry="3" style="stroke:#038048;stroke-width:1;"/><text fill="#000000" font-family="sans-serif" font-size="14" lengthAdjust="spacing" textLength="103.5234" x="842.84" y="662.9657">deadline: Long</text><ellipse cx="833.84" cy="675.9159" fill="#FFFFFF" fill-opacity="0.00000" rx="3" ry="3" style="stroke:#038048;stroke-width:1;"/><text fill="#000000" font-family="sans-serif" font-size="14" lengthAdjust="spacing" textLength="128.7891" x="842.84" y="679.2626">description: String</text><ellipse cx="833.84" cy="692.2128" fill="#FFFFFF" fill-opacity="0.00000" rx="3" ry="3" style="stroke:#038048;stroke-width:1;"/><text fill="#000000" font-family="sans-serif" font-size="14" lengthAdjust="spacing" textLength="158.3203" x="842.84" y="695.5595">is_completed: Boolean</text><line style="stroke:#181818;stroke-width:0.5;" x1="823.84" x2="1006.1603" y1="702.8613" y2="702.8613"/></g><!--class DbHelper--><g id="elem_DbHelper"><rect codeLine="42" fill="#F1F1F1" height="129.4844" id="DbHelper" rx="2.5" ry="2.5" style="stroke:#181818;stroke-width:0.5;" width="489.6201" x="1042.19" y="573.23"/><ellipse cx="1249.7735" cy="589.23" fill="#ADD1B2" rx="11" ry="11" style="stroke:#181818;stroke-width:1;"/><path d="M1252.7422,594.8706 Q1252.1641,595.1675 1251.5235,595.3081 Q1250.8829,595.4644 1250.1797,595.4644 Q1247.6797,595.4644 1246.3516,593.8238 Q1245.0391,592.1675 1245.0391,589.0425 Q1245.0391,585.9175 1246.3516,584.2613 Q1247.6797,582.605 1250.1797,582.605 Q1250.8829,582.605 1251.5235,582.7613 Q1252.1797,582.9175 1252.7422,583.2144 L1252.7422,585.9331 Q1252.1172,585.355 1251.5235,585.0894 Q1250.9297,584.8081 1250.3047,584.8081 Q1248.961,584.8081 1248.2735,585.8863 Q1247.586,586.9488 1247.586,589.0425 Q1247.586,591.1363 1248.2735,592.2144 Q1248.961,593.2769 1250.3047,593.2769 Q1250.9297,593.2769 1251.5235,593.0113 Q1252.1172,592.73 1252.7422,592.1519 L1252.7422,594.8706 Z " fill="#000000"/><text fill="#000000" font-family="sans-serif" font-size="14" lengthAdjust="spacing" textLength="65.9531" x="1270.2735" y="594.0767">DbHelper</text><line style="stroke:#181818;stroke-width:0.5;" x1="1043.19" x2="1530.8101" y1="605.23" y2="605.23"/><line style="stroke:#181818;stroke-width:0.5;" x1="1043.19" x2="1530.8101" y1="613.23" y2="613.23"/><ellipse cx="1053.19" cy="626.8784" fill="#84BE84" rx="3" ry="3" style="stroke:#038048;stroke-width:1;"/><text fill="#000000" font-family="sans-serif" font-size="14" lengthAdjust="spacing" textLength="222.0586" x="1062.19" y="630.2251">onCreate(db: SQLiteDatabase?)</text><ellipse cx="1053.19" cy="643.1753" fill="#84BE84" rx="3" ry="3" style="stroke:#038048;stroke-width:1;"/><text fill="#000000" font-family="sans-serif" font-size="14" lengthAdjust="spacing" textLength="463.6201" x="1062.19" y="646.522">onUpgrade(db: SQLiteDatabase?, oldVersion: Int, newVersion: Int)</text><ellipse cx="1053.19" cy="659.4722" fill="#84BE84" rx="3" ry="3" style="stroke:#038048;stroke-width:1;"/><text fill="#000000" font-family="sans-serif" font-size="14" lengthAdjust="spacing" textLength="288.1553" x="1062.19" y="662.8189">getReadableDatabase(): SQLiteDatabase</text><ellipse cx="1053.19" cy="675.7691" fill="#84BE84" rx="3" ry="3" style="stroke:#038048;stroke-width:1;"/><text fill="#000000" font-family="sans-serif" font-size="14" lengthAdjust="spacing" textLength="281.3262" x="1062.19" y="679.1157">getWritableDatabase(): SQLiteDatabase</text><rect fill="#F24D5C" height="6" style="stroke:#C82930;stroke-width:1;" width="6" x="1050.19" y="689.0659"/><text fill="#000000" font-family="sans-serif" font-size="14" lengthAdjust="spacing" textLength="192.7324" x="1062.19" y="695.4126">copyDatabaseFromAssets()</text></g><!--class Controller--><g id="elem_Controller"><rect codeLine="50" fill="#F1F1F1" height="113.1875" id="Controller" rx="2.5" ry="2.5" style="stroke:#181818;stroke-width:0.5;" width="332.1816" x="822.91" y="391.89"/><ellipse cx="950.1644" cy="407.89" fill="#ADD1B2" rx="11" ry="11" style="stroke:#181818;stroke-width:1;"/><path d="M953.1331,413.5306 Q952.555,413.8275 951.9144,413.9681 Q951.2738,414.1244 950.5706,414.1244 Q948.0706,414.1244 946.7425,412.4838 Q945.43,410.8275 945.43,407.7025 Q945.43,404.5775 946.7425,402.9213 Q948.0706,401.265 950.5706,401.265 Q951.2738,401.265 951.9144,401.4213 Q952.5706,401.5775 953.1331,401.8744 L953.1331,404.5931 Q952.5081,404.015 951.9144,403.7494 Q951.3206,403.4681 950.6956,403.4681 Q949.3519,403.4681 948.6644,404.5463 Q947.9769,405.6088 947.9769,407.7025 Q947.9769,409.7963 948.6644,410.8744 Q949.3519,411.9369 950.6956,411.9369 Q951.3206,411.9369 951.9144,411.6713 Q952.5081,411.39 953.1331,410.8119 L953.1331,413.5306 Z " fill="#000000"/><text fill="#000000" font-family="sans-serif" font-size="14" lengthAdjust="spacing" textLength="69.1729" x="970.6644" y="412.7367">Controller</text><line style="stroke:#181818;stroke-width:0.5;" x1="823.91" x2="1154.0916" y1="423.89" y2="423.89"/><line style="stroke:#181818;stroke-width:0.5;" x1="823.91" x2="1154.0916" y1="431.89" y2="431.89"/><ellipse cx="833.91" cy="445.5384" fill="#84BE84" rx="3" ry="3" style="stroke:#038048;stroke-width:1;"/><text fill="#000000" font-family="sans-serif" font-size="14" lengthAdjust="spacing" textLength="296.7686" x="842.91" y="448.8851">insertTodo(todo: TodoDataClass): Boolean</text><ellipse cx="833.91" cy="461.8353" fill="#84BE84" rx="3" ry="3" style="stroke:#038048;stroke-width:1;"/><text fill="#000000" font-family="sans-serif" font-size="14" lengthAdjust="spacing" textLength="306.1816" x="842.91" y="465.182">updateTodo(todo: TodoDataClass): Boolean</text><ellipse cx="833.91" cy="478.1322" fill="#84BE84" rx="3" ry="3" style="stroke:#038048;stroke-width:1;"/><text fill="#000000" font-family="sans-serif" font-size="14" lengthAdjust="spacing" textLength="227.6367" x="842.91" y="481.4789">deleteTodo(todoId: Int): Boolean</text><ellipse cx="833.91" cy="494.4291" fill="#84BE84" rx="3" ry="3" style="stroke:#038048;stroke-width:1;"/><text fill="#000000" font-family="sans-serif" font-size="14" lengthAdjust="spacing" textLength="255.0625" x="842.91" y="497.7757">getAllTodos(): List&lt;TodoDataClass&gt;</text></g><!--entity db--><g id="elem_db"><path d="M1165.13,926.86 C1165.13,916.86 1201.9952,916.86 1201.9952,916.86 C1201.9952,916.86 1238.8605,916.86 1238.8605,926.86 L1238.8605,952.1569 C1238.8605,962.1569 1201.9952,962.1569 1201.9952,962.1569 C1201.9952,962.1569 1165.13,962.1569 1165.13,952.1569 L1165.13,926.86 " fill="#F1F1F1" style="stroke:#181818;stroke-width:0.5;"/><path d="M1165.13,926.86 C1165.13,936.86 1201.9952,936.86 1201.9952,936.86 C1201.9952,936.86 1238.8605,936.86 1238.8605,926.86 " fill="#FFFFFF" fill-opacity="0.00000" style="stroke:#181818;stroke-width:0.5;"/><text fill="#000000" font-family="sans-serif" font-size="14" lengthAdjust="spacing" textLength="53.7305" x="1175.13" y="953.8551">todo.db</text></g><!--link MainActivity to Dashboard--><g id="link_MainActivity_Dashboard"><path codeLine="63" d="M479.89,191.73 C462.28,212.24 443.3288,234.3079 425.7688,254.7579 " fill="#FFFFFF" fill-opacity="0.00000" id="MainActivity-to-Dashboard" style="stroke:#181818;stroke-width:1;"/><polygon fill="#181818" points="421.86,259.31,430.7579,255.0877,425.1173,255.5166,424.6884,249.876,421.86,259.31" style="stroke:#181818;stroke-width:1;"/></g><!--link MainActivity to TodoScreen--><g id="link_MainActivity_TodoScreen"><path codeLine="64" d="M534.11,191.73 C549.39,209.52 564.7111,227.368 581.0011,246.338 " fill="#FFFFFF" fill-opacity="0.00000" id="MainActivity-to-TodoScreen" style="stroke:#181818;stroke-width:1;"/><polygon fill="#181818" points="584.91,250.89,582.0813,241.4561,581.6526,247.0967,576.012,246.668,584.91,250.89" style="stroke:#181818;stroke-width:1;"/></g><!--link TodoScreen to ExpandableTodoCard--><g id="link_TodoScreen_ExpandableTodoCard"><path codeLine="65" d="M495.67,332.37 C481.5,337.62 467.35,343.17 454,348.89 C419.13,363.83 387.1832,379.7947 355.0532,396.9447 " fill="#FFFFFF" fill-opacity="0.00000" id="TodoScreen-to-ExpandableTodoCard" style="stroke:#181818;stroke-width:1;"/><polygon fill="#181818" points="349.76,399.77,359.5833,399.0608,354.171,397.4156,355.8162,392.0032,349.76,399.77" style="stroke:#181818;stroke-width:1;"/></g><!--link TodoScreen to EditTodoDialog--><g id="link_TodoScreen_EditTodoDialog"><path codeLine="66" d="M619,332.08 C619,350.1 619,365.76 619,385.42 " fill="#FFFFFF" fill-opacity="0.00000" id="TodoScreen-to-EditTodoDialog" style="stroke:#181818;stroke-width:1;"/><polygon fill="#181818" points="619,391.42,623,382.42,619,386.42,615,382.42,619,391.42" style="stroke:#181818;stroke-width:1;"/></g><!--link TodoScreen to Controller--><g id="link_TodoScreen_Controller"><path codeLine="67" d="M740.06,332.37 C754.62,337.68 769.21,343.25 783,348.89 C814.28,361.7 842.1574,374.3208 872.6574,388.9108 " fill="#FFFFFF" fill-opacity="0.00000" id="TodoScreen-to-Controller" style="stroke:#181818;stroke-width:1;"/><polygon fill="#181818" points="878.07,391.5,871.6772,384.0078,873.5595,389.3424,868.225,391.2246,878.07,391.5" style="stroke:#181818;stroke-width:1;"/></g><!--link ExpandableTodoCard to TodoDataClass--><g id="link_ExpandableTodoCard_TodoDataClass"><path codeLine="68" d="M369.77,497.31 C396.87,508.65 426.23,520.06 454,529.08 C579.27,569.8 722.4601,600.6657 816.4501,618.9257 " fill="#FFFFFF" fill-opacity="0.00000" id="ExpandableTodoCard-to-TodoDataClass" style="stroke:#181818;stroke-width:1;"/><polygon fill="#181818" points="822.34,620.07,814.268,614.427,817.4318,619.1164,812.7423,622.2802,822.34,620.07" style="stroke:#181818;stroke-width:1;"/></g><!--link EditTodoDialog to TodoDataClass--><g id="link_EditTodoDialog_TodoDataClass"><path codeLine="69" d="M707.41,505.49 C743.69,528.47 780.6509,551.88 817.3509,575.12 " fill="#FFFFFF" fill-opacity="0.00000" id="EditTodoDialog-to-TodoDataClass" style="stroke:#181818;stroke-width:1;"/><polygon fill="#181818" points="822.42,578.33,816.9563,570.1356,818.1957,575.655,812.6763,576.8944,822.42,578.33" style="stroke:#181818;stroke-width:1;"/></g><!--link Controller to DbHelper--><g id="link_Controller_DbHelper"><path codeLine="70" d="M1078.01,505.49 C1111.71,526.69 1145.2412,547.7853 1180.0412,569.6753 " fill="#FFFFFF" fill-opacity="0.00000" id="Controller-to-DbHelper" style="stroke:#181818;stroke-width:1;"/><polygon fill="#181818" points="1185.12,572.87,1179.6316,564.6921,1180.8877,570.2078,1175.372,571.4638,1185.12,572.87" style="stroke:#181818;stroke-width:1;"/></g><!--link Controller to TodoDataClass--><g id="link_Controller_TodoDataClass"><path codeLine="71" d="M966.9,505.49 C959.57,524.04 953.5128,539.389 945.7728,558.999 " fill="#FFFFFF" fill-opacity="0.00000" id="Controller-to-TodoDataClass" style="stroke:#181818;stroke-width:1;"/><polygon fill="#181818" points="943.57,564.58,950.5949,557.677,945.4057,559.9292,943.1535,554.74,943.57,564.58" style="stroke:#181818;stroke-width:1;"/></g><!--link DbHelper to assets--><g id="link_DbHelper_assets"><path codeLine="72" d="M1287,702.86 C1287,724.51 1287,749.7756 1287,775.5661 C1287,788.4613 1287,801.4878 1287,814.2591 C1287,817.4519 1287,820.6288 1287,823.7837 C1287,825.3611 1287,826.9331 1287,828.4988 C1287,829.2816 1287,846.3598 1287,847.1394 " fill="#FFFFFF" fill-opacity="0.00000" id="DbHelper-to-assets" style="stroke:#181818;stroke-width:1;"/><polygon fill="#181818" points="1287,853.1394,1291,844.1394,1287,848.1394,1283,844.1394,1287,853.1394" style="stroke:#181818;stroke-width:1;"/></g><!--SRC=[bLNRRjim37tFL-ZHmT9yW36qI9qE3P0DsB9kZmDj4QvGHH8a9KqnxDydoOvlKe8sBmbuUCX3YcI0S_cwPoScwjbCGVK2DHAAI_Eyj99AK8hydH7tgJWOGxu24wlAiYEpRotWFv-858L6i9WPE2BT26D1LBYppfIJ-uEW7E_cmV_VB7oTSntO84wJP0tckPIWwG1fidH8Dk-GDbvF_-bqxogDA29-3sML51PFDYT5ysCnSXLmz7OjEKUTaszmV9J6zgOhwHzE2WI5agFFLgJAY5qot-myw5k3XS976YkIue4oMt1MlUGacvERM_8ac9qw5NAlE5eNkAwvQtqs2jdHhkbtQGA90PTrh7q4ftJVJJMjcTapOwx9thcfkIWsYeU-mdVLbXWuwWZHo8qYHJKpcfEDi1EhWBqJiRFQxyuOKff9xLOaHQC8b3FXg5iP4IcQIZDbcHGNGZFpfshVsAcwbv8ZYCklkIuVaIlKKKtTmjBIPVg-PHPz0qemvqKT-ZwfMWDDEY-8vFGNQXCqkteNHE3hq30DLwFzuPhWv_yS9PjFuyQStwwZ7-3Sa4ggjpFqHSlzoXYqvjhfw1SydW5XK8V9JytyF7wAXdPGRjxmmpIApHAtj4qpW1VTNNTMd7jtuxkoPSP-7YMwZNPYiXKGUkEg3bRQTetuv4jQpdhcw1_WngrSTvFJS7zo0puupXwDBs7IQtHpKXxzmmKqSOFFMhgMD8xZOvTs6an5ABXTgHGMaxi5z73JvVy0]--></g></svg>